<svg width="1168" height="1720" viewBox="0 0 1168 1720" fill="none" xmlns="http://www.w3.org/2000/svg">
<path opacity="0.4" d="M293.153 1687.63C201.514 1617.34 105.457 1539.44 61.628 1428.75C7.64167 1292.48 55.9086 1163.72 177.163 1085.19C355.99 969.415 589.924 1004.31 786.276 936.061C1194.32 794.255 1238.44 367.145 1090.31 11.6157C1081.2 -10.2587 1046.11 1.61275 1055.3 23.6569C1147.31 244.455 1188.25 511.669 1037.45 717.554C877.889 935.39 607.158 929.033 368.297 975.386C220.977 1003.96 54.4852 1080.77 10.9779 1238.39C-45.047 1441.34 124.407 1605.14 269.18 1715.86C288.073 1730.29 312.083 1702.14 293.153 1687.63Z" fill="#697DDB"/>
</svg>
